<svg width="21" height="25" viewBox="0 0 21 25" fill="none" xmlns="http://www.w3.org/2000/svg">
<path d="M19.2255 14.4122L18.7687 14.0463C18.646 13.9485 18.5468 13.8244 18.4787 13.6833C18.4105 13.5421 18.3751 13.3876 18.375 13.231V9.0079C18.3744 7.19305 17.7413 5.43463 16.5838 4.03257C15.4263 2.63051 13.8161 1.67166 12.0277 1.31958C11.9406 0.982884 11.7434 0.684592 11.4673 0.471617C11.1912 0.258642 10.8519 0.143066 10.5026 0.143066C10.1534 0.143066 9.814 0.258642 9.53792 0.471617C9.26184 0.684592 9.0647 0.982884 8.9775 1.31958C7.18819 1.67059 5.57673 2.62898 4.41819 4.03115C3.25964 5.43331 2.62585 7.19232 2.625 9.0079V13.231C2.6249 13.3876 2.58947 13.5421 2.52132 13.6833C2.45316 13.8244 2.35403 13.9485 2.23125 14.0463L1.7745 14.4122C1.22287 14.8512 0.777121 15.4078 0.470032 16.0409C0.162943 16.6741 0.00232763 17.3677 0 18.0708V18.9384C0 19.4929 0.221249 20.0247 0.615076 20.4167C1.0089 20.8088 1.54305 21.0291 2.1 21.0291H6.4365C6.67317 21.9216 7.19986 22.711 7.93443 23.2743C8.669 23.8376 9.57016 24.1431 10.4974 24.1431C11.4246 24.1431 12.3258 23.8376 13.0603 23.2743C13.7949 22.711 14.3216 21.9216 14.5582 21.0291H18.9C19.457 21.0291 19.9911 20.8088 20.3849 20.4167C20.7787 20.0247 21 19.4929 21 18.9384V18.0813C20.9992 17.3764 20.8394 16.6807 20.5322 16.0457C20.2251 15.4106 19.7785 14.8523 19.2255 14.4122ZM10.5 22.0744C10.1335 22.0722 9.774 21.9745 9.45717 21.7912C9.14034 21.6078 8.87724 21.345 8.694 21.0291H12.3112C12.1276 21.3458 11.8636 21.609 11.5458 21.7925C11.228 21.9759 10.8674 22.0731 10.5 22.0744ZM18.9 18.9384H2.1V18.0813C2.10056 17.6896 2.18955 17.303 2.36039 16.9502C2.53124 16.5974 2.77956 16.2873 3.087 16.0429L3.54375 15.677C3.9121 15.3834 4.20949 15.0112 4.41395 14.5878C4.6184 14.1644 4.7247 13.7007 4.725 13.231V9.0079C4.725 7.4831 5.33344 6.02076 6.41646 4.94256C7.49948 3.86437 8.96837 3.25865 10.5 3.25865C12.0316 3.25865 13.5005 3.86437 14.5835 4.94256C15.6666 6.02076 16.275 7.4831 16.275 9.0079V13.231C16.2745 13.7016 16.3804 14.1664 16.5849 14.5907C16.7894 15.015 17.0872 15.3881 17.4562 15.6823L17.913 16.0481C18.2197 16.292 18.4677 16.6012 18.6385 16.9531C18.8093 17.3049 18.8987 17.6905 18.9 18.0813V18.9384Z" fill="white"/>
</svg>
