<svg width="21" height="24" viewBox="0 0 21 24" fill="none" xmlns="http://www.w3.org/2000/svg">
<path d="M2.87012 7.77357C2.87012 12.049 6.36822 15.5471 10.6437 15.5471C14.9192 15.5471 18.4173 12.049 18.4173 7.77357C18.4173 3.49811 14.9192 0 10.6437 0C6.36822 0 2.87012 3.49811 2.87012 7.77357ZM16.5882 7.77357C16.5882 11.043 13.9132 13.7181 10.6437 13.7181C7.37422 13.7181 4.69919 11.043 4.69919 7.77357C4.69919 4.5041 7.37422 1.82908 10.6437 1.82908C13.9132 1.82908 16.5882 4.5041 16.5882 7.77357Z" fill="white"/>
<path d="M0.939093 23.2192C1.29822 23.5783 1.87845 23.5755 2.26177 23.2423C4.59053 21.2181 7.52223 20.1198 10.6433 20.1198C13.7643 20.1198 16.696 21.2181 19.0248 23.2423C19.4081 23.5755 19.9883 23.5783 20.3475 23.2192C20.7076 22.859 20.7081 22.2722 20.3252 21.9364C17.6485 19.5892 14.2428 18.2908 10.6433 18.2908C7.04375 18.2908 3.63803 19.5892 0.961397 21.9364C0.578415 22.2722 0.578912 22.859 0.939093 23.2192Z" fill="white"/>
</svg>
